HIERARCHY
ROOT Hips
{
  OFFSET -21.6994 31.6921 0
  CHANNELS 6 Xposition Yposition Zposition Zrotation Xrotation Yrotation
  JOINT Bip01_Pelvis
  {
    OFFSET 0 0 0
    CHANNELS 6 Xposition Yposition Zposition Zrotation Xrotation Yrotation
    JOINT BN_Tail_01
    {
      OFFSET -7.25226 -1.74978 0
      CHANNELS 6 Xposition Yposition Zposition Zrotation Xrotation Yrotation
      JOINT BN_Tail_02
      {
        OFFSET 15.788 0 0
        CHANNELS 6 Xposition Yposition Zposition Zrotation Xrotation Yrotation
        JOINT BN_Tail_03
        {
          OFFSET 16.0015 0 0
          CHANNELS 6 Xposition Yposition Zposition Zrotation Xrotation Yrotation
          JOINT BN_Tail_04
          {
            OFFSET 16.1689 0 0
            CHANNELS 6 Xposition Yposition Zposition Zrotation Xrotation Yrotation
            End Site
            {
              OFFSET 0 0 0
            }
          }
        }
      }
    }
    JOINT Bip01_Spine
    {
      OFFSET 6.38383 2.70859 0.585432
      CHANNELS 6 Xposition Yposition Zposition Zrotation Xrotation Yrotation
      JOINT BN_Mane_02
      {
        OFFSET 6.12662 8.45826 0
        CHANNELS 6 Xposition Yposition Zposition Zrotation Xrotation Yrotation
        End Site
        {
          OFFSET 0 0 0
        }
      }
      JOINT Bip01_R_Thigh
      {
        OFFSET -7.04074 -2.18223 -5.47025
        CHANNELS 6 Xposition Yposition Zposition Zrotation Xrotation Yrotation
        JOINT Bip01_R_Calf
        {
          OFFSET 13.6591 0 0
          CHANNELS 6 Xposition Yposition Zposition Zrotation Xrotation Yrotation
          JOINT Bip01_R_HorseLink
          {
            OFFSET 9.07516 0 0
            CHANNELS 6 Xposition Yposition Zposition Zrotation Xrotation Yrotation
            JOINT Bip01_R_Foot
            {
              OFFSET 8.13856 0 0
              CHANNELS 6 Xposition Yposition Zposition Zrotation Xrotation Yrotation
              JOINT Bip01_R_Toe0
              {
                OFFSET 3.79737 6.30086 0
                CHANNELS 6 Xposition Yposition Zposition Zrotation Xrotation Yrotation
                JOINT Bip01_R_Toe0Nub
                {
                  OFFSET 0.838764 0 0
                  CHANNELS 6 Xposition Yposition Zposition Zrotation Xrotation Yrotation
                  End Site
                  {
                    OFFSET 0 0 0
                  }
                }
              }
            }
          }
        }
      }
      JOINT Bip01_L_Thigh
      {
        OFFSET -6.18667 -2.14873 5.3508
        CHANNELS 6 Xposition Yposition Zposition Zrotation Xrotation Yrotation
        JOINT Bip01_L_Calf
        {
          OFFSET 13.6591 0 0
          CHANNELS 6 Xposition Yposition Zposition Zrotation Xrotation Yrotation
          JOINT Bip01_L_HorseLink
          {
            OFFSET 9.07515 0 0
            CHANNELS 6 Xposition Yposition Zposition Zrotation Xrotation Yrotation
            JOINT Bip01_L_Foot
            {
              OFFSET 8.13856 0 0
              CHANNELS 6 Xposition Yposition Zposition Zrotation Xrotation Yrotation
              JOINT Bip01_L_Toe0
              {
                OFFSET 3.79737 6.30086 0
                CHANNELS 6 Xposition Yposition Zposition Zrotation Xrotation Yrotation
                JOINT Bip01_L_Toe0Nub
                {
                  OFFSET 0.838764 0 0
                  CHANNELS 6 Xposition Yposition Zposition Zrotation Xrotation Yrotation
                  End Site
                  {
                    OFFSET 0 0 0
                  }
                }
              }
            }
          }
        }
      }
      JOINT Bip01_Spine1
      {
        OFFSET 12.1687 -0.0105438 0
        CHANNELS 6 Xposition Yposition Zposition Zrotation Xrotation Yrotation
        JOINT BN_Mane_R_01
        {
          OFFSET -0.157498 5.09008 -6.54008
          CHANNELS 6 Xposition Yposition Zposition Zrotation Xrotation Yrotation
          End Site
          {
            OFFSET 0 0 0
          }
        }
        JOINT BN_Mane_R_02
        {
          OFFSET -0.1575 5.09007 6.54
          CHANNELS 6 Xposition Yposition Zposition Zrotation Xrotation Yrotation
          End Site
          {
            OFFSET 0 0 0
          }
        }
        JOINT BN_Mane_01
        {
          OFFSET 8.29709 8.50414 0
          CHANNELS 6 Xposition Yposition Zposition Zrotation Xrotation Yrotation
          End Site
          {
            OFFSET 0 0 0
          }
        }
        JOINT Bip01_Spine2
        {
          OFFSET 13.2802 -0.0100708 1.51992e-005
          CHANNELS 6 Xposition Yposition Zposition Zrotation Xrotation Yrotation
          JOINT Bip01_Neck
          {
            OFFSET 12.4891 -6.66662 0
            CHANNELS 6 Xposition Yposition Zposition Zrotation Xrotation Yrotation
            JOINT Bip01_R_Clavicle
            {
              OFFSET -7.4542 -2.82621 -1.17874
              CHANNELS 6 Xposition Yposition Zposition Zrotation Xrotation Yrotation
              JOINT Bip01_R_UpperArm
              {
                OFFSET 13.2557 0 0
                CHANNELS 6 Xposition Yposition Zposition Zrotation Xrotation Yrotation
                JOINT Bip01_R_Forearm
                {
                  OFFSET 12.8897 0 0
                  CHANNELS 6 Xposition Yposition Zposition Zrotation Xrotation Yrotation
                  JOINT Bip01_R_Hand
                  {
                    OFFSET 11.2622 0 0
                    CHANNELS 6 Xposition Yposition Zposition Zrotation Xrotation Yrotation
                    JOINT Bip01_R_Finger0
                    {
                      OFFSET 3.98015 -0.208661 -0.0949803
                      CHANNELS 6 Xposition Yposition Zposition Zrotation Xrotation Yrotation
                      JOINT Bip01_R_Finger0Nub
                      {
                        OFFSET 6.57561 0 0
                        CHANNELS 6 Xposition Yposition Zposition Zrotation Xrotation Yrotation
                        End Site
                        {
                          OFFSET 0 0 0
                        }
                      }
                    }
                  }
                }
              }
            }
            JOINT Bip01_L_Clavicle
            {
              OFFSET -7.4541 -2.82679 1.17708
              CHANNELS 6 Xposition Yposition Zposition Zrotation Xrotation Yrotation
              JOINT Bip01_L_UpperArm
              {
                OFFSET 13.2558 0 0
                CHANNELS 6 Xposition Yposition Zposition Zrotation Xrotation Yrotation
                JOINT Bip01_L_Forearm
                {
                  OFFSET 12.8897 0 0
                  CHANNELS 6 Xposition Yposition Zposition Zrotation Xrotation Yrotation
                  JOINT Bip01_L_Hand
                  {
                    OFFSET 11.2622 0 0
                    CHANNELS 6 Xposition Yposition Zposition Zrotation Xrotation Yrotation
                    JOINT Bip01_L_Finger0
                    {
                      OFFSET 3.98014 -0.20866 0.0949764
                      CHANNELS 6 Xposition Yposition Zposition Zrotation Xrotation Yrotation
                      JOINT Bip01_L_Finger0Nub
                      {
                        OFFSET 6.57562 0 0
                        CHANNELS 6 Xposition Yposition Zposition Zrotation Xrotation Yrotation
                        End Site
                        {
                          OFFSET 0 0 0
                        }
                      }
                    }
                  }
                }
              }
            }
            JOINT Bip01_Neck1
            {
              OFFSET 4.19352 -0.00332451 0
              CHANNELS 6 Xposition Yposition Zposition Zrotation Xrotation Yrotation
              JOINT Bip01_Head
              {
                OFFSET 4.17604 0.298252 0
                CHANNELS 6 Xposition Yposition Zposition Zrotation Xrotation Yrotation
                JOINT BN_Eye_R_01
                {
                  OFFSET 6.53258 -3.90694 -2.55361
                  CHANNELS 6 Xposition Yposition Zposition Zrotation Xrotation Yrotation
                  End Site
                  {
                    OFFSET 0 0 0
                  }
                }
                JOINT BN_Eye_L_01
                {
                  OFFSET 6.5326 -3.90694 2.55371
                  CHANNELS 6 Xposition Yposition Zposition Zrotation Xrotation Yrotation
                  End Site
                  {
                    OFFSET 0 0 0
                  }
                }
                JOINT BN_Ear_R_01
                {
                  OFFSET 1.75934 -4.1584 -4.45634
                  CHANNELS 6 Xposition Yposition Zposition Zrotation Xrotation Yrotation
                  End Site
                  {
                    OFFSET 0 0 0
                  }
                }
                JOINT BN_Ear_L_01
                {
                  OFFSET 1.75933 -4.15841 4.45616
                  CHANNELS 6 Xposition Yposition Zposition Zrotation Xrotation Yrotation
                  End Site
                  {
                    OFFSET 0 0 0
                  }
                }
                JOINT BN_Beard_L_01
                {
                  OFFSET 11.2964 -1.06183 2.32054
                  CHANNELS 6 Xposition Yposition Zposition Zrotation Xrotation Yrotation
                  End Site
                  {
                    OFFSET 0 0 0
                  }
                }
                JOINT BN_Beard_R_01
                {
                  OFFSET 11.2964 -1.06182 -2.32036
                  CHANNELS 6 Xposition Yposition Zposition Zrotation Xrotation Yrotation
                  End Site
                  {
                    OFFSET 0 0 0
                  }
                }
                JOINT BN_Mouth_0
                {
                  OFFSET 1.3149 1.30001 0
                  CHANNELS 6 Xposition Yposition Zposition Zrotation Xrotation Yrotation
                  End Site
                  {
                    OFFSET 0 0 0
                  }
                }
                JOINT Bip01_HeadNub
                {
                  OFFSET 12.6869 0 0
                  CHANNELS 6 Xposition Yposition Zposition Zrotation Xrotation Yrotation
                  End Site
                  {
                    OFFSET 0 0 0
                  }
                }
              }
            }
          }
        }
      }
    }
  }
}
MOTION
Frames:	4
Frame Time:	0.0333333
-37.5215 12.8404 11.9627 22.3809 -57.6181 90.2565 -1.90735e-006 0 -1.90735e-006 -121.818 -1.47399 -76.1507 -7.25225 -1.74978 -1.89892e-006 -35.7141 13.303 -150.434 15.5937 -0.270844 -0.188577 -26.1919 34.9164 89.0923 15.9314 1.14111 0.351143 -18.989 27.6927 59.4676 16.1689 8.88179e-015 -7.10543e-015 -23.5736 -4.67383 42.1258 5.93824 2.13476 2.93611 17.5293 24.3465 -22.3746 6.12661 8.45826 4.00946e-007 -88.9944 -0.0318909 -179.968 -8.69486 -3.67227 -4.54864 -135.97 17.9933 140.491 13.6591 -4.76837e-007 -1.90735e-006 -137.576 -7.32367e-006 5.04499e-006 9.07515 9.53674e-007 -1.90735e-006 159.225 2.60555e-007 -1.52004e-006 8.13856 -2.98023e-008 -1.06581e-014 -73.0384 -43.5836 11.5687 3.79737 6.30086 2.14265e-006 142.316 15.416 11.602 0.838764 -1.90735e-006 1.43051e-006 1.19545e-006 5.53491e-006 9.74538e-009 -4.9286 0.803982 4.59389 -130.263 -6.27589 -162.458 13.6591 2.86102e-006 -2.13163e-014 -112.104 -9.343e-006 1.71524e-005 9.07515 -9.53674e-007 -1.90735e-006 131.776 -4.91122e-006 -8.24428e-006 8.13856 9.53674e-007 0 -72.6923 10.9404 -41.8735 3.79737 6.30086 -2.94745e-009 89.9995 3.91444e-005 -12.4979 0.838761 1.49012e-008 -5.32907e-015 -179.96 9.9254e-005 -1.59995e-005 12.1681 -0.0104809 4.76931e-007 -8.00871 -0.121486 -3.57441 -0.1575 5.09008 -6.54008 -92.7406 -0.0220419 -167.965 -0.157498 5.09006 6.54 87.255 -0.000385098 12.0139 8.29709 8.50413 -7.93267e-008 -91.651 -0.0231781 -179.978 13.2887 -0.00747108 6.96838e-011 42.4682 -0.77289 -2.30753 12.4892 -6.66662 -6.96192e-005 -8.30839 -3.24737 -0.579685 -7.26008 -3.25053 -1.29034 -171.818 -30.1289 111.774 13.2557 1.42109e-014 -4.76837e-007 62.3538 19.65 -108.604 12.8897 9.53674e-007 7.10543e-015 -118.321 4.66228e-006 -1.34555e-005 11.2622 5.96045e-008 -1.90735e-006 -104.746 82.56 102.002 3.98015 -0.208662 -0.0949758 1.38498 7.28239 -37.4014 6.57562 1.90735e-006 -9.45911e-014 -179.96 4.45225e-005 1.72492e-005 -7.23607 -3.38324 1.06131 -171.613 52.0264 -93.8283 13.2557 -1.77636e-014 -1.24345e-014 95.463 -70.5274 143.11 12.8897 8.88178e-015 -1.77636e-015 -82.4964 -1.47296e-005 2.97422e-006 11.2623 -1.77636e-015 -1.24345e-014 13.115 -69.0058 -7.39823 3.98015 -0.208661 0.0949756 3.49485 -32.5253 48.6378 6.57562 1.77636e-014 -5.96046e-008 9.41599e-007 1.05453e-005 3.1556e-007 4.19563 -0.00280762 -4.76767e-007 32.6561 -1.25919e-005 1.50755e-005 4.17604 0.298252 -4.75535e-007 24.5375 -2.53939 6.26794 6.53259 -3.90694 -2.55362 156.495 9.62464 159.624 6.5326 -3.90695 2.55371 -19.6549 7.87095 -19.9485 1.75934 -4.15839 -4.45634 9.14343 -31.3532 142.094 1.75934 -4.15841 4.45617 -167.975 -40.1845 -63.7396 11.2964 -1.06183 2.32054 174.096 16.7411 -134.788 11.2964 -1.06182 -2.32036 -35.8613 -18.165 37.9247 1.31489 1.30001 -4.54966e-007 -169.845 -0.0234833 -179.998 12.6869 2.86102e-006 4.57412e-014 -8.43788e-008 1.17784e-005 9.79869e-006 
-37.5176 12.8336 11.9663 22.4113 -57.5987 90.2861 -1.90735e-006 0 -1.90735e-006 -121.698 -1.54912 -76.1969 -7.25225 -1.74978 -1.8989e-006 -35.8194 13.1277 -150.392 15.5937 -0.270844 -0.188577 -26.2098 34.9137 88.9954 15.9314 1.14111 0.351143 -18.9979 27.6631 59.5097 16.1689 8.88179e-016 -1.06581e-014 -23.5736 -4.67383 42.1258 5.94447 2.13093 2.92598 17.4329 24.2223 -22.1864 6.12661 8.45826 3.99566e-007 -88.9944 -0.0318909 -179.968 -8.68132 -3.65686 -4.57509 -135.985 18.0116 140.565 13.6591 -4.76837e-007 -1.90735e-006 -137.696 -1.36304e-005 -1.87638e-006 9.07515 9.53674e-007 -1.90735e-006 159.422 3.43735e-006 -1.00179e-005 8.13856 -2.98023e-008 7.10543e-015 -73.0264 -43.583 11.5763 3.79737 6.30086 2.14291e-006 142.316 15.416 11.602 0.838764 -1.90735e-006 1.43051e-006 1.19545e-006 5.53491e-006 9.74538e-009 -4.94446 0.796956 4.59031 -130.338 -6.20348 -162.387 13.6591 2.86102e-006 -1.42109e-014 -112.089 -9.34517e-006 1.71696e-005 9.07515 -9.53674e-007 -1.90735e-006 131.733 -1.17609e-005 -2.12697e-006 8.13856 9.53674e-007 0 -72.6892 10.9595 -41.8641 3.79737 6.30086 -2.89759e-009 89.9995 6.66755e-005 -12.4979 0.838761 1.49012e-008 -7.10543e-015 -179.96 9.9254e-005 -1.59995e-005 12.1681 -0.0104809 4.76933e-007 -8.01917 -0.118385 -3.56347 -0.1575 5.09008 -6.54008 -92.7406 -0.022012 -167.965 -0.157498 5.09006 6.54 87.255 -0.000390228 12.0139 8.29709 8.50413 -8.02705e-008 -91.651 -0.0231781 -179.978 13.2887 -0.00747108 7.05143e-011 42.4532 -0.768732 -2.36581 12.4892 -6.66662 -6.9619e-005 -8.4885 -3.01381 -0.613578 -7.25035 -3.27816 -1.2751 -171.668 -29.9107 111.71 13.2557 7.10543e-015 -4.76837e-007 62.2003 19.5516 -108.589 12.8897 9.53674e-007 7.10543e-015 -118.66 5.1008e-006 -1.32591e-005 11.2622 5.96045e-008 -1.90735e-006 -103.381 82.5137 100.766 3.98015 -0.208662 -0.0949758 1.40029 7.30717 -37.376 6.57562 1.90735e-006 -7.90479e-014 -179.96 4.45225e-005 1.72492e-005 -7.22552 -3.40224 1.07715 -171.361 52.255 -93.92 13.2557 -7.10543e-015 -7.10543e-015 95.5649 -70.4124 143.144 12.8897 1.42109e-014 -1.77636e-015 -82.6896 -2.45068e-005 4.19043e-006 11.2623 -1.33227e-015 -3.55271e-015 13.6723 -69.0715 -6.96013 3.98015 -0.208661 0.0949756 3.58106 -32.6065 48.6706 6.57562 1.59872e-014 -5.96046e-008 9.41599e-007 1.05453e-005 3.1556e-007 4.19563 -0.00280762 -4.76767e-007 32.6561 -1.26749e-005 1.50846e-005 4.17604 0.298252 -4.75176e-007 24.3442 -2.76724 6.14776 6.53259 -3.90694 -2.55362 156.506 9.62 159.623 6.5326 -3.90695 2.55371 -19.7854 7.92279 -19.9366 1.75934 -4.15839 -4.45634 9.12959 -31.3427 141.867 1.75934 -4.15841 4.45617 -168.205 -40.1502 -64.0714 11.2964 -1.06183 2.32054 174.859 15.9776 -136.343 11.2964 -1.06182 -2.32036 -34.9699 -18.8842 39.4115 1.31489 1.30001 -4.52455e-007 -169.845 -0.0238342 -179.998 12.6869 2.86102e-006 5.65104e-014 -8.43788e-008 1.17784e-005 9.79869e-006 
-37.5128 12.8236 11.9737 22.472 -57.5847 90.3321 -1.90735e-006 0 -1.90735e-006 -121.584 -1.64304 -76.2395 -7.25225 -1.74978 -1.89887e-006 -35.9279 12.9426 -150.342 15.5937 -0.270844 -0.188577 -26.2177 34.9014 88.8714 15.9314 1.14111 0.351143 -19.0065 27.6342 59.5509 16.1689 4.44089e-015 -1.06581e-014 -23.5736 -4.67383 42.1258 5.95165 2.1214 2.91893 17.3486 24.1078 -22.0205 6.12661 8.45826 3.98386e-007 -88.9944 -0.0318909 -179.968 -8.67252 -3.63721 -4.59889 -136.012 18.0246 140.622 13.6591 -4.76837e-007 -1.90735e-006 -137.813 -6.90533e-006 5.52204e-006 9.07515 9.53674e-007 -1.90735e-006 159.637 3.38914e-006 -1.00232e-005 8.13856 -2.98023e-008 -3.55271e-015 -73.0684 -43.5657 11.57 3.79737 6.30086 2.14355e-006 142.316 15.416 11.602 0.838764 -1.90735e-006 1.43051e-006 1.19545e-006 5.53491e-006 9.79793e-009 -4.95712 0.797589 4.5849 -130.422 -6.1326 -162.311 13.6591 2.86102e-006 -2.4869e-014 -112.075 -7.60959e-007 2.06733e-005 9.07515 -9.53674e-007 -1.90735e-006 131.69 -1.13304e-005 -2.51321e-006 8.13856 9.53674e-007 -3.55271e-015 -72.6862 10.9782 -41.8548 3.79737 6.30086 -2.82484e-009 89.9995 6.66756e-005 -12.4979 0.838761 1.49012e-008 3.55271e-015 -179.96 9.9254e-005 -1.59995e-005 12.1681 -0.0104809 4.76934e-007 -8.02598 -0.116418 -3.53901 -0.1575 5.09008 -6.54008 -92.7406 -0.022012 -167.965 -0.157498 5.09006 6.54 87.255 -0.000390228 12.0139 8.29709 8.50413 -8.11101e-008 -91.651 -0.0231781 -179.978 13.2887 -0.00747108 7.12541e-011 42.4384 -0.766083 -2.40769 12.4892 -6.66662 -6.96186e-005 -8.68552 -2.76039 -0.64821 -7.23946 -3.30799 -1.25701 -171.508 -29.6672 111.639 13.2557 7.10543e-015 -4.76837e-007 62.0556 19.4426 -108.566 12.8897 9.53674e-007 0 -119.062 4.45134e-006 -1.36644e-005 11.2622 5.96045e-008 -1.90735e-006 -102.066 82.4661 99.632 3.98015 -0.208662 -0.0949758 1.41529 7.3315 -37.3511 6.57562 1.90735e-006 -7.86038e-014 -179.96 4.45225e-005 1.72492e-005 -7.2137 -3.42086 1.09518 -171.086 52.502 -94.0185 13.2557 -7.10543e-015 -1.59872e-014 95.6901 -70.2687 143.234 12.8897 1.77636e-015 3.55271e-015 -82.925 -2.462e-005 4.13409e-006 11.2623 7.10542e-015 0 14.2217 -69.1343 -6.52752 3.98015 -0.208661 0.0949756 3.66572 -32.6862 48.7029 6.57562 1.59872e-014 -5.96046e-008 9.41599e-007 1.05453e-005 3.1556e-007 4.19563 -0.00280762 -4.76766e-007 32.6561 -1.27599e-005 1.50947e-005 4.17604 0.298252 -4.74816e-007 24.1538 -3.04836 6.02062 6.53259 -3.90694 -2.55362 156.517 9.61545 159.622 6.5326 -3.90695 2.55371 -19.9134 7.97361 -19.9247 1.75934 -4.15839 -4.45634 9.09522 -31.3032 141.265 1.75934 -4.15841 4.45617 -168.431 -40.1155 -64.3964 11.2964 -1.06183 2.32054 175.584 15.2097 -137.852 11.2964 -1.06182 -2.32036 -34.0729 -19.5676 40.8871 1.31489 1.30001 -4.49799e-007 -169.845 -0.0242004 -179.998 12.6869 2.86102e-006 5.62883e-014 -8.43788e-008 1.17784e-005 9.79869e-006 
-37.5079 12.8134 11.9812 22.5547 -57.5684 90.3917 -1.90735e-006 -1.77636e-015 -1.90735e-006 -121.464 -1.76858 -76.2677 -7.25225 -1.74978 -1.89886e-006 -36.0449 12.7522 -150.286 15.5937 -0.270844 -0.188577 -26.2291 34.8791 88.7332 15.9314 1.14111 0.351143 -19.02 27.5906 59.6143 16.1689 1.24345e-014 3.55271e-015 -23.5736 -4.67383 42.1258 5.95891 2.11179 2.91181 17.2698 23.996 -21.8739 6.12661 8.45826 3.97467e-007 -88.9944 -0.0318909 -179.968 -8.66364 -3.61738 -4.62292 -136.039 18.0377 140.68 13.6591 -4.76837e-007 -1.90735e-006 -137.932 -7.41984e-006 4.96207e-006 9.07515 9.53674e-007 -1.90735e-006 159.876 -1.12016e-007 -6.2163e-007 8.13856 -2.98023e-008 -7.10543e-015 -73.1107 -43.5482 11.5636 3.79737 6.30086 2.14398e-006 142.316 15.416 11.602 0.838764 -1.90735e-006 1.43051e-006 1.19544e-006 5.53491e-006 1.00276e-005 -4.96991 0.798229 4.57945 -130.527 -6.05476 -162.229 13.6591 2.86102e-006 -2.13163e-014 -112.05 -9.34686e-006 1.72238e-005 9.07515 -9.53674e-007 -1.90735e-006 131.648 -1.2386e-005 -1.57278e-006 8.13856 9.53674e-007 0 -72.6917 11.0301 -41.845 3.79737 6.30086 -2.78432e-009 89.9995 6.66756e-005 -12.4979 0.838761 1.49012e-008 1.77636e-015 -179.96 9.9254e-005 -1.59995e-005 12.1681 -0.0104809 4.76935e-007 -8.02923 -0.112028 -3.50014 -0.1575 5.09008 -6.54008 -92.7406 -0.022012 -167.965 -0.157498 5.09006 6.54 87.255 -0.000390228 12.0139 8.29709 8.50413 -8.16087e-008 -91.651 -0.0231781 -179.977 13.2887 -0.00747108 7.16929e-011 42.431 -0.763026 -2.4389 12.4892 -6.66662 -6.96182e-005 -8.90183 -2.4793 -0.687737 -7.22709 -3.3423 -1.23635 -171.335 -29.4021 111.558 13.2557 1.42109e-014 -4.76837e-007 61.9162 19.3148 -108.523 12.8897 9.53674e-007 7.10543e-015 -119.54 -3.37363e-006 -1.81566e-005 11.2622 5.96046e-008 -1.90735e-006 -100.731 82.4122 98.518 3.98015 -0.208662 -0.0949758 1.43042 7.35607 -37.326 6.57562 1.90735e-006 -6.52812e-014 -179.96 4.45225e-005 1.72492e-005 -7.1988 -3.44416 1.11755 -170.768 52.7726 -94.1393 13.2557 -2.13163e-014 -5.32907e-015 95.8349 -70.0947 143.374 12.8897 5.32907e-015 -5.32907e-015 -83.2147 -1.59066e-005 3.02023e-006 11.2623 1.0214e-014 -1.59872e-014 14.8936 -69.19 -6.01223 3.98015 -0.208661 0.0949756 3.75135 -32.7666 48.7357 6.57562 7.10542e-015 -5.96046e-008 9.41599e-007 1.05453e-005 3.1556e-007 4.19563 -0.00280762 -4.76765e-007 32.6561 -1.28511e-005 1.51039e-005 4.17604 0.298252 -4.74416e-007 23.9673 -3.38313 5.8846 6.53259 -3.90694 -2.55362 156.528 9.61085 159.621 6.5326 -3.90695 2.55371 -20.0427 8.02489 -19.9126 1.75934 -4.15839 -4.45634 9.06098 -31.2631 140.658 1.75934 -4.15841 4.45617 -168.659 -40.0795 -64.7242 11.2964 -1.06183 2.32054 176.011 14.4689 -139.671 11.2964 -1.06182 -2.32036 -33.1446 -20.2354 42.3951 1.31489 1.30001 -4.46927e-007 -169.845 -0.0245514 -179.998 12.6869 2.86102e-006 5.90639e-014 -8.43787e-008 1.17784e-005 9.79869e-006 
